{
    "asset" : {
        "generator" : "Khronos glTF Blender I/O v1.2.57",
        "version" : "2.0"
    },
    "scene" : 0,
    "scenes" : [
        {
            "name" : "Scene",
            "nodes" : [
                0,
                1,
                2,
                3
            ]
        }
    ],
    "nodes" : [
        {
            "name" : "Light",
            "rotation" : [
                0.16907575726509094,
                0.7558803558349609,
                -0.27217137813568115,
                0.570947527885437
            ],
            "translation" : [
                4.076245307922363,
                5.903861999511719,
                -1.0054539442062378
            ]
        },
        {
            "name" : "Camera",
            "rotation" : [
                0.5381636023521423,
                0.09130693972110748,
                -0.1314476877450943,
                0.8275049328804016
            ],
            "translation" : [
                3.1387104988098145,
                3.2121505737304688,
                8.41109848022461
            ]
        },
        {
            "mesh" : 0,
            "name" : "Text",
            "rotation" : [
                0.7071067690849304,
                0,
                0,
                0.7071067690849304
            ],
            "translation" : [
                -1.889481782913208,
                0.3452913463115692,
                0.04492157697677612
            ]
        },
        {
            "name" : "NurbsCurve",
            "translation" : [
                2.752096652984619,
                0.052279435098171234,
                0.21000337600708008
            ]
        }
    ],
    "animations" : [
        {
            "channels" : [
                {
                    "sampler" : 0,
                    "target" : {
                        "node" : 2,
                        "path" : "translation"
                    }
                },
                {
                    "sampler" : 1,
                    "target" : {
                        "node" : 2,
                        "path" : "rotation"
                    }
                },
                {
                    "sampler" : 2,
                    "target" : {
                        "node" : 2,
                        "path" : "scale"
                    }
                }
            ],
            "name" : "TextAction.001",
            "samplers" : [
                {
                    "input" : 4,
                    "interpolation" : "LINEAR",
                    "output" : 5
                },
                {
                    "input" : 6,
                    "interpolation" : "STEP",
                    "output" : 7
                },
                {
                    "input" : 6,
                    "interpolation" : "STEP",
                    "output" : 8
                }
            ]
        }
    ],
    "materials" : [
        {
            "doubleSided" : true,
            "name" : "Material.002",
            "pbrMetallicRoughness" : {}
        }
    ],
    "meshes" : [
        {
            "name" : "Text",
            "primitives" : [
                {
                    "attributes" : {
                        "POSITION" : 0,
                        "NORMAL" : 1,
                        "TEXCOORD_0" : 2
                    },
                    "indices" : 3,
                    "material" : 0
                }
            ]
        }
    ],
    "accessors" : [
        {
            "bufferView" : 0,
            "componentType" : 5126,
            "count" : 16200,
            "max" : [
                2.909472703933716,
                1.163835048675537,
                0.32902005314826965
            ],
            "min" : [
                -2.2116003036499023,
                -0.49788254499435425,
                -0.40200042724609375
            ],
            "type" : "VEC3"
        },
        {
            "bufferView" : 1,
            "componentType" : 5126,
            "count" : 16200,
            "type" : "VEC3"
        },
        {
            "bufferView" : 2,
            "componentType" : 5126,
            "count" : 16200,
            "type" : "VEC2"
        },
        {
            "bufferView" : 3,
            "componentType" : 5123,
            "count" : 50160,
            "type" : "SCALAR"
        },
        {
            "bufferView" : 4,
            "componentType" : 5126,
            "count" : 110,
            "max" : [
                4.583333333333333
            ],
            "min" : [
                0.041666666666666664
            ],
            "type" : "SCALAR"
        },
        {
            "bufferView" : 5,
            "componentType" : 5126,
            "count" : 110,
            "type" : "VEC3"
        },
        {
            "bufferView" : 6,
            "componentType" : 5126,
            "count" : 1,
            "max" : [
                4.583333333333333
            ],
            "min" : [
                4.583333333333333
            ],
            "type" : "SCALAR"
        },
        {
            "bufferView" : 7,
            "componentType" : 5126,
            "count" : 1,
            "type" : "VEC4"
        },
        {
            "bufferView" : 8,
            "componentType" : 5126,
            "count" : 1,
            "type" : "VEC3"
        }
    ],
    "bufferViews" : [
        {
            "buffer" : 0,
            "byteLength" : 194400,
            "byteOffset" : 0
        },
        {
            "buffer" : 0,
            "byteLength" : 194400,
            "byteOffset" : 194400
        },
        {
            "buffer" : 0,
            "byteLength" : 129600,
            "byteOffset" : 388800
        },
        {
            "buffer" : 0,
            "byteLength" : 100320,
            "byteOffset" : 518400
        },
        {
            "buffer" : 0,
            "byteLength" : 440,
            "byteOffset" : 618720
        },
        {
            "buffer" : 0,
            "byteLength" : 1320,
            "byteOffset" : 619160
        },
        {
            "buffer" : 0,
            "byteLength" : 4,
            "byteOffset" : 620480
        },
        {
            "buffer" : 0,
            "byteLength" : 16,
            "byteOffset" : 620484
        },
        {
            "buffer" : 0,
            "byteLength" : 12,
            "byteOffset" : 620500
        }
    ],
    "buffers" : [
        {
            "byteLength" : 620512,
            "uri" : "data:application/octet-stream;base64,"
        }
    ]
}
